<?xml version="1.0" standalone="no"?>
<!DOCTYPE svg PUBLIC "-//W3C//DTD SVG 20010904//EN"
 "http://www.w3.org/TR/2001/REC-SVG-20010904/DTD/svg10.dtd">
<svg version="1.0" xmlns="http://www.w3.org/2000/svg"
 width="162.000000pt" height="162.000000pt" viewBox="0 0 162.000000 162.000000"
 preserveAspectRatio="xMidYMid meet">
<metadata>
Created by potrace 1.11, written by Peter Selinger 2001-2013
</metadata>
<g transform="translate(0.000000,162.000000) scale(0.100000,-0.100000)"
fill="#000000" stroke="none">
<path d="M587 1404 c-1 -2 -89 -4 -195 -5 -106 -1 -195 -6 -198 -11 -4 -5 -17
-7 -30 -4 -22 6 -23 4 -26 -61 l-3 -68 -32 -3 -33 -3 0 -220 0 -219 53 0 c28
0 57 4 62 8 6 4 11 36 10 72 l0 65 60 5 60 5 3 71 3 71 90 5 c50 3 169 3 265
0 l175 -5 -1 -61 c-1 -34 -1 -66 -1 -71 1 -7 25 -9 66 -7 l64 4 3 -78 3 -79
73 -3 72 -3 0 -299 0 -300 23 0 c12 1 105 18 207 38 l185 38 0 472 0 472 -22
0 c-27 0 -36 25 -31 93 l3 51 -145 18 c-113 14 -214 17 -453 16 -169 -1 -308
-3 -310 -4z"/>
<path d="M522 953 l-64 -4 4 -70 c2 -41 -1 -70 -7 -71 -5 -1 -35 -2 -65 -2
l-55 -1 -5 -69 -5 -69 -60 -1 -60 -1 -3 -75 c-2 -41 -1 -130 3 -196 l7 -122
79 5 c55 4 83 2 94 -7 13 -11 15 -7 15 28 l0 41 -47 3 -48 3 -3 122 -3 123
108 -3 108 -2 0 118 0 117 98 0 97 0 0 70 0 70 -62 -2 c-35 -1 -91 -3 -126 -5z"/>
<path d="M735 705 c-4 -52 -5 -101 -1 -110 4 -12 26 -15 116 -15 l110 0 0
-120 c0 -73 4 -120 10 -120 6 0 10 60 10 160 l0 160 -64 0 c-63 0 -64 0 -70
31 -3 17 -6 49 -6 70 l0 39 -49 0 -49 0 -7 -95z"/>
<path d="M500 220 c0 -17 7 -20 45 -20 38 0 45 3 45 20 0 17 -7 20 -45 20 -38
0 -45 -3 -45 -20z"/>
<path d="M790 215 c0 -11 12 -15 45 -15 33 0 45 4 45 15 0 11 -12 15 -45 15
-33 0 -45 -4 -45 -15z"/>
</g>
</svg>
